<mxfile host="app.diagrams.net" agent="Mozilla/5.0 (Windows NT 10.0; Win64; x64) AppleWebKit/537.36 (KHTML, like Gecko) Chrome/135.0.0.0 Safari/537.36" version="26.2.8">
  <diagram name="페이지-1" id="iIJkAWw8r4VEFrCGX2Ji">
    <mxGraphModel dx="1428" dy="897" grid="1" gridSize="10" guides="1" tooltips="1" connect="1" arrows="1" fold="1" page="1" pageScale="1" pageWidth="827" pageHeight="1169" math="0" shadow="0">
      <root>
        <mxCell id="0" />
        <mxCell id="1" parent="0" />
        <mxCell id="22zsRsA8DtsiyT7bLICd-17" value="" style="rounded=0;whiteSpace=wrap;html=1;strokeColor=none;" vertex="1" parent="1">
          <mxGeometry x="80" y="80" width="480" height="490" as="geometry" />
        </mxCell>
        <mxCell id="22zsRsA8DtsiyT7bLICd-7" value="1" style="ellipse;whiteSpace=wrap;html=1;aspect=fixed;" vertex="1" parent="1">
          <mxGeometry x="295" y="100" width="50" height="50" as="geometry" />
        </mxCell>
        <mxCell id="22zsRsA8DtsiyT7bLICd-8" value="2" style="ellipse;whiteSpace=wrap;html=1;aspect=fixed;" vertex="1" parent="1">
          <mxGeometry x="413.5" y="130" width="50" height="50" as="geometry" />
        </mxCell>
        <mxCell id="22zsRsA8DtsiyT7bLICd-9" value="3" style="ellipse;whiteSpace=wrap;html=1;aspect=fixed;" vertex="1" parent="1">
          <mxGeometry x="480" y="230" width="50" height="50" as="geometry" />
        </mxCell>
        <mxCell id="22zsRsA8DtsiyT7bLICd-10" value="4" style="ellipse;whiteSpace=wrap;html=1;aspect=fixed;" vertex="1" parent="1">
          <mxGeometry x="480" y="360" width="50" height="50" as="geometry" />
        </mxCell>
        <mxCell id="22zsRsA8DtsiyT7bLICd-11" value="5" style="ellipse;whiteSpace=wrap;html=1;aspect=fixed;" vertex="1" parent="1">
          <mxGeometry x="414" y="460" width="50" height="50" as="geometry" />
        </mxCell>
        <mxCell id="22zsRsA8DtsiyT7bLICd-12" value="6" style="ellipse;whiteSpace=wrap;html=1;aspect=fixed;" vertex="1" parent="1">
          <mxGeometry x="295" y="490" width="50" height="50" as="geometry" />
        </mxCell>
        <mxCell id="22zsRsA8DtsiyT7bLICd-13" value="7" style="ellipse;whiteSpace=wrap;html=1;aspect=fixed;" vertex="1" parent="1">
          <mxGeometry x="180" y="460" width="50" height="50" as="geometry" />
        </mxCell>
        <mxCell id="22zsRsA8DtsiyT7bLICd-14" value="8" style="ellipse;whiteSpace=wrap;html=1;aspect=fixed;" vertex="1" parent="1">
          <mxGeometry x="110" y="360" width="50" height="50" as="geometry" />
        </mxCell>
        <mxCell id="22zsRsA8DtsiyT7bLICd-15" value="9" style="ellipse;whiteSpace=wrap;html=1;aspect=fixed;" vertex="1" parent="1">
          <mxGeometry x="110" y="230" width="50" height="50" as="geometry" />
        </mxCell>
        <mxCell id="22zsRsA8DtsiyT7bLICd-16" value="10" style="ellipse;whiteSpace=wrap;html=1;aspect=fixed;" vertex="1" parent="1">
          <mxGeometry x="180" y="130" width="50" height="50" as="geometry" />
        </mxCell>
        <mxCell id="22zsRsA8DtsiyT7bLICd-18" value="" style="ellipse;shape=cloud;whiteSpace=wrap;html=1;fillColor=#dae8fc;strokeColor=#6c8ebf;" vertex="1" parent="1">
          <mxGeometry x="310" y="130" width="50" height="30" as="geometry" />
        </mxCell>
        <mxCell id="22zsRsA8DtsiyT7bLICd-19" value="" style="rounded=0;whiteSpace=wrap;html=1;strokeColor=none;" vertex="1" parent="1">
          <mxGeometry x="690" y="80" width="480" height="490" as="geometry" />
        </mxCell>
        <mxCell id="22zsRsA8DtsiyT7bLICd-20" value="1" style="ellipse;whiteSpace=wrap;html=1;aspect=fixed;" vertex="1" parent="1">
          <mxGeometry x="905" y="100" width="50" height="50" as="geometry" />
        </mxCell>
        <mxCell id="22zsRsA8DtsiyT7bLICd-21" value="2" style="ellipse;whiteSpace=wrap;html=1;aspect=fixed;" vertex="1" parent="1">
          <mxGeometry x="1023.5" y="130" width="50" height="50" as="geometry" />
        </mxCell>
        <mxCell id="22zsRsA8DtsiyT7bLICd-22" value="3" style="ellipse;whiteSpace=wrap;html=1;aspect=fixed;" vertex="1" parent="1">
          <mxGeometry x="1090" y="230" width="50" height="50" as="geometry" />
        </mxCell>
        <mxCell id="22zsRsA8DtsiyT7bLICd-24" value="5" style="ellipse;whiteSpace=wrap;html=1;aspect=fixed;" vertex="1" parent="1">
          <mxGeometry x="1024" y="460" width="50" height="50" as="geometry" />
        </mxCell>
        <mxCell id="22zsRsA8DtsiyT7bLICd-25" value="6" style="ellipse;whiteSpace=wrap;html=1;aspect=fixed;" vertex="1" parent="1">
          <mxGeometry x="905" y="490" width="50" height="50" as="geometry" />
        </mxCell>
        <mxCell id="22zsRsA8DtsiyT7bLICd-26" value="7" style="ellipse;whiteSpace=wrap;html=1;aspect=fixed;" vertex="1" parent="1">
          <mxGeometry x="790" y="460" width="50" height="50" as="geometry" />
        </mxCell>
        <mxCell id="22zsRsA8DtsiyT7bLICd-27" value="8" style="ellipse;whiteSpace=wrap;html=1;aspect=fixed;" vertex="1" parent="1">
          <mxGeometry x="720" y="360" width="50" height="50" as="geometry" />
        </mxCell>
        <mxCell id="22zsRsA8DtsiyT7bLICd-28" value="9" style="ellipse;whiteSpace=wrap;html=1;aspect=fixed;" vertex="1" parent="1">
          <mxGeometry x="720" y="230" width="50" height="50" as="geometry" />
        </mxCell>
        <mxCell id="22zsRsA8DtsiyT7bLICd-29" value="10" style="ellipse;whiteSpace=wrap;html=1;aspect=fixed;" vertex="1" parent="1">
          <mxGeometry x="790" y="130" width="50" height="50" as="geometry" />
        </mxCell>
        <mxCell id="22zsRsA8DtsiyT7bLICd-30" value="" style="ellipse;shape=cloud;whiteSpace=wrap;html=1;fillColor=#dae8fc;strokeColor=#6c8ebf;" vertex="1" parent="1">
          <mxGeometry x="990" y="460" width="50" height="30" as="geometry" />
        </mxCell>
        <mxCell id="22zsRsA8DtsiyT7bLICd-31" value="" style="rounded=0;whiteSpace=wrap;html=1;strokeColor=none;" vertex="1" parent="1">
          <mxGeometry x="80" y="610" width="480" height="490" as="geometry" />
        </mxCell>
        <mxCell id="22zsRsA8DtsiyT7bLICd-32" value="1" style="ellipse;whiteSpace=wrap;html=1;aspect=fixed;" vertex="1" parent="1">
          <mxGeometry x="295" y="630" width="50" height="50" as="geometry" />
        </mxCell>
        <mxCell id="22zsRsA8DtsiyT7bLICd-33" value="2" style="ellipse;whiteSpace=wrap;html=1;aspect=fixed;" vertex="1" parent="1">
          <mxGeometry x="413.5" y="660" width="50" height="50" as="geometry" />
        </mxCell>
        <mxCell id="22zsRsA8DtsiyT7bLICd-34" value="3" style="ellipse;whiteSpace=wrap;html=1;aspect=fixed;" vertex="1" parent="1">
          <mxGeometry x="480" y="760" width="50" height="50" as="geometry" />
        </mxCell>
        <mxCell id="22zsRsA8DtsiyT7bLICd-35" value="5" style="ellipse;whiteSpace=wrap;html=1;aspect=fixed;" vertex="1" parent="1">
          <mxGeometry x="414" y="990" width="50" height="50" as="geometry" />
        </mxCell>
        <mxCell id="22zsRsA8DtsiyT7bLICd-36" value="6" style="ellipse;whiteSpace=wrap;html=1;aspect=fixed;" vertex="1" parent="1">
          <mxGeometry x="295" y="1020" width="50" height="50" as="geometry" />
        </mxCell>
        <mxCell id="22zsRsA8DtsiyT7bLICd-37" value="7" style="ellipse;whiteSpace=wrap;html=1;aspect=fixed;" vertex="1" parent="1">
          <mxGeometry x="180" y="990" width="50" height="50" as="geometry" />
        </mxCell>
        <mxCell id="22zsRsA8DtsiyT7bLICd-39" value="9" style="ellipse;whiteSpace=wrap;html=1;aspect=fixed;" vertex="1" parent="1">
          <mxGeometry x="110" y="760" width="50" height="50" as="geometry" />
        </mxCell>
        <mxCell id="22zsRsA8DtsiyT7bLICd-40" value="10" style="ellipse;whiteSpace=wrap;html=1;aspect=fixed;" vertex="1" parent="1">
          <mxGeometry x="180" y="660" width="50" height="50" as="geometry" />
        </mxCell>
        <mxCell id="22zsRsA8DtsiyT7bLICd-41" value="" style="ellipse;shape=cloud;whiteSpace=wrap;html=1;fillColor=#dae8fc;strokeColor=#6c8ebf;" vertex="1" parent="1">
          <mxGeometry x="130" y="790" width="50" height="30" as="geometry" />
        </mxCell>
        <mxCell id="22zsRsA8DtsiyT7bLICd-42" value="" style="rounded=0;whiteSpace=wrap;html=1;strokeColor=none;" vertex="1" parent="1">
          <mxGeometry x="660" y="610" width="480" height="490" as="geometry" />
        </mxCell>
        <mxCell id="22zsRsA8DtsiyT7bLICd-43" value="1" style="ellipse;whiteSpace=wrap;html=1;aspect=fixed;" vertex="1" parent="1">
          <mxGeometry x="875" y="630" width="50" height="50" as="geometry" />
        </mxCell>
        <mxCell id="22zsRsA8DtsiyT7bLICd-45" value="3" style="ellipse;whiteSpace=wrap;html=1;aspect=fixed;" vertex="1" parent="1">
          <mxGeometry x="1060" y="760" width="50" height="50" as="geometry" />
        </mxCell>
        <mxCell id="22zsRsA8DtsiyT7bLICd-46" value="5" style="ellipse;whiteSpace=wrap;html=1;aspect=fixed;" vertex="1" parent="1">
          <mxGeometry x="994" y="990" width="50" height="50" as="geometry" />
        </mxCell>
        <mxCell id="22zsRsA8DtsiyT7bLICd-47" value="6" style="ellipse;whiteSpace=wrap;html=1;aspect=fixed;" vertex="1" parent="1">
          <mxGeometry x="875" y="1020" width="50" height="50" as="geometry" />
        </mxCell>
        <mxCell id="22zsRsA8DtsiyT7bLICd-48" value="7" style="ellipse;whiteSpace=wrap;html=1;aspect=fixed;" vertex="1" parent="1">
          <mxGeometry x="760" y="990" width="50" height="50" as="geometry" />
        </mxCell>
        <mxCell id="22zsRsA8DtsiyT7bLICd-49" value="9" style="ellipse;whiteSpace=wrap;html=1;aspect=fixed;" vertex="1" parent="1">
          <mxGeometry x="690" y="760" width="50" height="50" as="geometry" />
        </mxCell>
        <mxCell id="22zsRsA8DtsiyT7bLICd-50" value="10" style="ellipse;whiteSpace=wrap;html=1;aspect=fixed;" vertex="1" parent="1">
          <mxGeometry x="760" y="660" width="50" height="50" as="geometry" />
        </mxCell>
        <mxCell id="22zsRsA8DtsiyT7bLICd-51" value="" style="ellipse;shape=cloud;whiteSpace=wrap;html=1;fillColor=#dae8fc;strokeColor=#6c8ebf;" vertex="1" parent="1">
          <mxGeometry x="1030" y="780" width="50" height="30" as="geometry" />
        </mxCell>
        <mxCell id="22zsRsA8DtsiyT7bLICd-52" value="" style="rounded=0;whiteSpace=wrap;html=1;strokeColor=none;" vertex="1" parent="1">
          <mxGeometry x="90" y="1160" width="480" height="490" as="geometry" />
        </mxCell>
        <mxCell id="22zsRsA8DtsiyT7bLICd-53" value="1" style="ellipse;whiteSpace=wrap;html=1;aspect=fixed;" vertex="1" parent="1">
          <mxGeometry x="305" y="1180" width="50" height="50" as="geometry" />
        </mxCell>
        <mxCell id="22zsRsA8DtsiyT7bLICd-54" value="3" style="ellipse;whiteSpace=wrap;html=1;aspect=fixed;" vertex="1" parent="1">
          <mxGeometry x="490" y="1310" width="50" height="50" as="geometry" />
        </mxCell>
        <mxCell id="22zsRsA8DtsiyT7bLICd-55" value="5" style="ellipse;whiteSpace=wrap;html=1;aspect=fixed;" vertex="1" parent="1">
          <mxGeometry x="424" y="1540" width="50" height="50" as="geometry" />
        </mxCell>
        <mxCell id="22zsRsA8DtsiyT7bLICd-56" value="6" style="ellipse;whiteSpace=wrap;html=1;aspect=fixed;" vertex="1" parent="1">
          <mxGeometry x="305" y="1570" width="50" height="50" as="geometry" />
        </mxCell>
        <mxCell id="22zsRsA8DtsiyT7bLICd-58" value="9" style="ellipse;whiteSpace=wrap;html=1;aspect=fixed;" vertex="1" parent="1">
          <mxGeometry x="120" y="1310" width="50" height="50" as="geometry" />
        </mxCell>
        <mxCell id="22zsRsA8DtsiyT7bLICd-59" value="10" style="ellipse;whiteSpace=wrap;html=1;aspect=fixed;" vertex="1" parent="1">
          <mxGeometry x="190" y="1210" width="50" height="50" as="geometry" />
        </mxCell>
        <mxCell id="22zsRsA8DtsiyT7bLICd-60" value="" style="ellipse;shape=cloud;whiteSpace=wrap;html=1;fillColor=#dae8fc;strokeColor=#6c8ebf;" vertex="1" parent="1">
          <mxGeometry x="150" y="1330" width="50" height="30" as="geometry" />
        </mxCell>
        <mxCell id="22zsRsA8DtsiyT7bLICd-61" value="" style="rounded=0;whiteSpace=wrap;html=1;strokeColor=none;" vertex="1" parent="1">
          <mxGeometry x="680" y="1169" width="480" height="490" as="geometry" />
        </mxCell>
        <mxCell id="22zsRsA8DtsiyT7bLICd-62" value="1" style="ellipse;whiteSpace=wrap;html=1;aspect=fixed;" vertex="1" parent="1">
          <mxGeometry x="895" y="1189" width="50" height="50" as="geometry" />
        </mxCell>
        <mxCell id="22zsRsA8DtsiyT7bLICd-64" value="5" style="ellipse;whiteSpace=wrap;html=1;aspect=fixed;" vertex="1" parent="1">
          <mxGeometry x="1014" y="1549" width="50" height="50" as="geometry" />
        </mxCell>
        <mxCell id="22zsRsA8DtsiyT7bLICd-65" value="6" style="ellipse;whiteSpace=wrap;html=1;aspect=fixed;" vertex="1" parent="1">
          <mxGeometry x="895" y="1579" width="50" height="50" as="geometry" />
        </mxCell>
        <mxCell id="22zsRsA8DtsiyT7bLICd-66" value="9" style="ellipse;whiteSpace=wrap;html=1;aspect=fixed;" vertex="1" parent="1">
          <mxGeometry x="710" y="1319" width="50" height="50" as="geometry" />
        </mxCell>
        <mxCell id="22zsRsA8DtsiyT7bLICd-67" value="10" style="ellipse;whiteSpace=wrap;html=1;aspect=fixed;" vertex="1" parent="1">
          <mxGeometry x="780" y="1219" width="50" height="50" as="geometry" />
        </mxCell>
        <mxCell id="22zsRsA8DtsiyT7bLICd-68" value="" style="ellipse;shape=cloud;whiteSpace=wrap;html=1;fillColor=#dae8fc;strokeColor=#6c8ebf;" vertex="1" parent="1">
          <mxGeometry x="1044" y="1579" width="50" height="30" as="geometry" />
        </mxCell>
        <mxCell id="22zsRsA8DtsiyT7bLICd-69" value="" style="rounded=0;whiteSpace=wrap;html=1;strokeColor=none;" vertex="1" parent="1">
          <mxGeometry x="80" y="1730" width="480" height="490" as="geometry" />
        </mxCell>
        <mxCell id="22zsRsA8DtsiyT7bLICd-70" value="1" style="ellipse;whiteSpace=wrap;html=1;aspect=fixed;" vertex="1" parent="1">
          <mxGeometry x="295" y="1750" width="50" height="50" as="geometry" />
        </mxCell>
        <mxCell id="22zsRsA8DtsiyT7bLICd-71" value="5" style="ellipse;whiteSpace=wrap;html=1;aspect=fixed;" vertex="1" parent="1">
          <mxGeometry x="414" y="2110" width="50" height="50" as="geometry" />
        </mxCell>
        <mxCell id="22zsRsA8DtsiyT7bLICd-72" value="6" style="ellipse;whiteSpace=wrap;html=1;aspect=fixed;" vertex="1" parent="1">
          <mxGeometry x="295" y="2140" width="50" height="50" as="geometry" />
        </mxCell>
        <mxCell id="22zsRsA8DtsiyT7bLICd-73" value="9" style="ellipse;whiteSpace=wrap;html=1;aspect=fixed;" vertex="1" parent="1">
          <mxGeometry x="110" y="1880" width="50" height="50" as="geometry" />
        </mxCell>
        <mxCell id="22zsRsA8DtsiyT7bLICd-75" value="" style="ellipse;shape=cloud;whiteSpace=wrap;html=1;fillColor=#dae8fc;strokeColor=#6c8ebf;" vertex="1" parent="1">
          <mxGeometry x="310" y="1780" width="50" height="30" as="geometry" />
        </mxCell>
        <mxCell id="22zsRsA8DtsiyT7bLICd-77" value="" style="rounded=0;whiteSpace=wrap;html=1;strokeColor=none;" vertex="1" parent="1">
          <mxGeometry x="680" y="1730" width="480" height="490" as="geometry" />
        </mxCell>
        <mxCell id="22zsRsA8DtsiyT7bLICd-78" value="1" style="ellipse;whiteSpace=wrap;html=1;aspect=fixed;" vertex="1" parent="1">
          <mxGeometry x="895" y="1750" width="50" height="50" as="geometry" />
        </mxCell>
        <mxCell id="22zsRsA8DtsiyT7bLICd-79" value="5" style="ellipse;whiteSpace=wrap;html=1;aspect=fixed;" vertex="1" parent="1">
          <mxGeometry x="1014" y="2110" width="50" height="50" as="geometry" />
        </mxCell>
        <mxCell id="22zsRsA8DtsiyT7bLICd-80" value="6" style="ellipse;whiteSpace=wrap;html=1;aspect=fixed;" vertex="1" parent="1">
          <mxGeometry x="895" y="2140" width="50" height="50" as="geometry" />
        </mxCell>
        <mxCell id="22zsRsA8DtsiyT7bLICd-82" value="" style="ellipse;shape=cloud;whiteSpace=wrap;html=1;fillColor=#dae8fc;strokeColor=#6c8ebf;" vertex="1" parent="1">
          <mxGeometry x="900" y="1780" width="50" height="30" as="geometry" />
        </mxCell>
        <mxCell id="22zsRsA8DtsiyT7bLICd-83" value="" style="rounded=0;whiteSpace=wrap;html=1;strokeColor=none;" vertex="1" parent="1">
          <mxGeometry x="80" y="2280" width="480" height="490" as="geometry" />
        </mxCell>
        <mxCell id="22zsRsA8DtsiyT7bLICd-85" value="5" style="ellipse;whiteSpace=wrap;html=1;aspect=fixed;" vertex="1" parent="1">
          <mxGeometry x="414" y="2660" width="50" height="50" as="geometry" />
        </mxCell>
        <mxCell id="22zsRsA8DtsiyT7bLICd-86" value="6" style="ellipse;whiteSpace=wrap;html=1;aspect=fixed;" vertex="1" parent="1">
          <mxGeometry x="295" y="2690" width="50" height="50" as="geometry" />
        </mxCell>
        <mxCell id="22zsRsA8DtsiyT7bLICd-87" value="" style="ellipse;shape=cloud;whiteSpace=wrap;html=1;fillColor=#dae8fc;strokeColor=#6c8ebf;" vertex="1" parent="1">
          <mxGeometry x="380" y="2660" width="50" height="30" as="geometry" />
        </mxCell>
        <mxCell id="22zsRsA8DtsiyT7bLICd-88" value="" style="rounded=0;whiteSpace=wrap;html=1;strokeColor=none;" vertex="1" parent="1">
          <mxGeometry x="685" y="2280" width="480" height="490" as="geometry" />
        </mxCell>
        <mxCell id="22zsRsA8DtsiyT7bLICd-89" value="5" style="ellipse;whiteSpace=wrap;html=1;aspect=fixed;" vertex="1" parent="1">
          <mxGeometry x="1019" y="2660" width="50" height="50" as="geometry" />
        </mxCell>
        <mxCell id="22zsRsA8DtsiyT7bLICd-91" value="" style="ellipse;shape=cloud;whiteSpace=wrap;html=1;fillColor=#dae8fc;strokeColor=#6c8ebf;" vertex="1" parent="1">
          <mxGeometry x="990" y="2660" width="50" height="30" as="geometry" />
        </mxCell>
      </root>
    </mxGraphModel>
  </diagram>
</mxfile>
